# xmcd
#
# Track frame offsets:
#	150
#	15677
#	33010
#	49765
#	69707
#	86167
#	105990
#	119200
#	137185
#	153522
#
# Disc length: 2258 seconds
#
# Revision: 1
# Processed by: cddbd v1.5PL3 Copyright (c) Steve Scherf et al.
# Submitted via: CDex 1.50Beta5
#
DISCID=8608d00a
DTITLE=堀江美都子 - IMAGE
DYEAR=1990
DGENRE=Pop
TTITLE0=ピュア・モーニング
TTITLE1=二人の夏
TTITLE2=Bye-bye Boy
TTITLE3=渚のパープル・レイン
TTITLE4=少しセンチメンタル
TTITLE5=Dr.マジック
TTITLE6=サンシャイン
TTITLE7=風色のダイアリー
TTITLE8=夢子
TTITLE9=一枚の写真
EXTD=
EXTT0=
EXTT1=
EXTT2=
EXTT3=
EXTT4=
EXTT5=
EXTT6=
EXTT7=
EXTT8=
EXTT9=
PLAYORDER=
